<svg version="1.1" id="Layer_1"
    xmlns="http://www.w3.org/2000/svg"
    xmlns:xlink="http://www.w3.org/1999/xlink" x="0px" y="0px" viewBox="0 0 502 502" style="enable-background: new 0 0 502 502" xml:space="preserve">
    <g>
        <g>
            <path d="M413.052,398.121H106.608C51.81,398.121,0,346.312,0,291.513c0-26.037,10.005-50.645,28.172-69.288
			c16.207-16.632,37.319-26.904,60.147-29.416c8.316-35.826,40.505-61.921,78.02-61.921c14.855,0,29.412,4.16,41.962,11.868
			c18.138-24.213,46.94-38.877,77.499-38.877c22.109,0,43.725,7.656,60.866,21.558c15.24,12.36,26.421,29.182,31.931,47.865
			c23.473,6.828,41.956,24.908,49.326,48.183c19.357,3.261,37.102,12.847,50.553,27.438C493.646,265.38,502,286.776,502,309.173
			C502,358.219,462.098,398.121,413.052,398.121z M166.338,150.888c-30.253,0-55.889,22.609-59.631,52.592
			c-0.611,4.899-4.707,8.619-9.642,8.758C53.852,213.453,20,248.274,20,291.513c0,43.709,42.899,86.608,86.608,86.608h306.444
			c38.018,0,68.948-30.93,68.948-68.948c0-35.437-27.624-65.598-62.887-68.665c-4.385-0.382-8.005-3.586-8.917-7.892
			c-4.42-20.88-20.799-37.06-41.727-41.22c-3.882-0.772-6.943-3.761-7.809-7.623c-7.773-34.705-39.257-59.895-74.861-59.895
			c-27.133,0-52.523,14.579-66.261,38.048c-1.48,2.529-3.995,4.281-6.88,4.794c-2.887,0.515-5.85-0.266-8.111-2.13
			C193.828,155.754,180.259,150.888,166.338,150.888z" />
        </g>
        <g>
            <g>
                <path d="M251.578,345.143c-5.523,0-10-4.478-10-10v-86.22c0-5.522,4.477-10,10-10s10,4.478,10,10v86.22
				C261.578,340.665,257.101,345.143,251.578,345.143z" />
            </g>
            <g>
                <path d="M305.639,259.928c-2.56,0-5.118-0.977-7.071-2.929L251,209.431l-47.568,47.568c-3.905,3.904-10.237,3.904-14.142,0
				c-3.905-3.905-3.906-10.237,0-14.143l54.639-54.64c1.875-1.875,4.419-2.929,7.071-2.929s5.196,1.054,7.071,2.929l54.639,54.64
				c3.905,3.905,3.905,10.237,0,14.143C310.758,258.951,308.198,259.928,305.639,259.928z" />
            </g>
        </g>
        <g>
            <path d="M97.263,364.881c-0.828,0-1.67-0.104-2.509-0.32c-0.506-0.132-12.554-3.304-25.641-11.462
			c-4.687-2.922-6.117-9.09-3.195-13.776c2.921-4.688,9.089-6.117,13.776-3.196c10.363,6.461,19.999,9.053,20.095,9.078
			c5.329,1.41,8.525,6.869,7.13,12.202C105.744,361.9,101.7,364.881,97.263,364.881z" />
        </g>
        <g>
            <path d="M52.542,333.721c-3.302,0.001-6.533-1.633-8.44-4.623c-4.136-6.483-7.02-13.55-8.573-21.003
			c-8.927-42.849,19.895-66.952,21.126-67.958c4.279-3.493,10.579-2.854,14.07,1.424c3.479,4.262,2.86,10.53-1.375,14.03
			c-0.945,0.797-20.612,17.847-14.241,48.425c1.057,5.073,3.026,9.893,5.854,14.326c2.97,4.656,1.604,10.838-3.053,13.809
			C56.244,333.213,54.382,333.721,52.542,333.721z" />
        </g>
    </g>
    <g></g>
    <g></g>
    <g></g>
    <g></g>
    <g></g>
    <g></g>
    <g></g>
    <g></g>
    <g></g>
    <g></g>
    <g></g>
    <g></g>
    <g></g>
    <g></g>
    <g></g>
</svg>