<?xml version="1.0" encoding="utf-8"?>
<!-- Svg Vector Icons : http://www.onlinewebfonts.com/icon -->
<!DOCTYPE svg PUBLIC "-//W3C//DTD SVG 1.1//EN" "http://www.w3.org/Graphics/SVG/1.1/DTD/svg11.dtd">
<svg version="1.1" xmlns="http://www.w3.org/2000/svg" xmlns:xlink="http://www.w3.org/1999/xlink" x="0px" y="0px" viewBox="0 0 256 256" enable-background="new 0 0 256 256" xml:space="preserve">
<metadata> Svg Vector Icons : http://www.onlinewebfonts.com/icon </metadata>
<g><g><path fill="#fff" d="M128,10C62.8,10,10,59.1,10,119.8c0,30.8,15,62.9,52.6,81.9c0,12.7-12,31.7-24.1,44.4c36.1-3.2,51.9-12.4,64.6-18.9c8,1.5,16.3,2.4,24.8,2.4c65.2,0,118-49.1,118-109.8C246,59.1,193.2,10,128,10z M191.3,195.4c-8.6-45-12.7-60.5-80.1-60.5v26.2c0,2-1.5,3.9-3.3,4.7c-0.7,0.2-1.4,0.4-2,0.4c-1.2,0-2.6-0.5-3.5-1.5l-57.2-47.6c-1.8-2-1.9-5.3,0-7.2L102.2,62c1.3-1.4,3.9-1.9,5.7-1.1c1.8,0.8,3.3,2.7,3.3,4.7v27.8C161.7,93.5,211.1,125.6,191.3,195.4z"/></g></g>
</svg>